<?xml version="1.0" encoding="UTF-8" standalone="no"?>
<!DOCTYPE svg PUBLIC "-//W3C//DTD SVG 1.1//EN" "http://www.w3.org/Graphics/SVG/1.1/DTD/svg11.dtd">
<svg width="100%" height="100%" viewBox="0 0 205 137" version="1.1" xmlns="http://www.w3.org/2000/svg" xmlns:xlink="http://www.w3.org/1999/xlink" xml:space="preserve" xmlns:serif="http://www.serif.com/" style="fill-rule:evenodd;clip-rule:evenodd;stroke-linejoin:round;stroke-miterlimit:2;">
    <g>
        <path d="M0,0.937L204.093,0.937L204.094,137L0,137L0,0.937Z" style="fill:white;fill-rule:nonzero;"/>
        <path d="M43.672,62.203C44.695,63.825 45.496,63.797 46.707,63.797C45.707,63.032 45.047,62.047 44.73,61.543L42.859,58.551C42.676,57.629 42.199,56.766 41.484,56.121C41.723,56.032 41.926,55.934 42.043,55.844C40.824,55.844 39.613,55.223 38.945,55.223C38.52,55.223 38.242,55.481 38.242,55.817C38.27,56.196 38.66,56.578 39.375,56.578C39.539,56.578 39.746,56.559 39.973,56.52C40.363,57.059 40.676,57.547 40.676,58.246C40.676,59.559 39.109,60.578 37.527,60.578C37.438,60.578 37.352,60.575 37.266,60.567C37.121,60.243 36.645,59.7 36.645,59.078C36.645,58.035 37.324,57.188 37.324,56.157C37.324,55.516 37.012,55.118 36.891,54.953C37.086,54.774 37.297,54.551 37.348,54.399C37.234,54.45 37.102,54.453 36.906,54.453C36.148,54.453 35.527,54.258 34.926,54.258C34.582,54.258 34.492,54.364 34.492,54.465C34.492,54.5 34.496,54.539 34.508,54.559C34.379,54.508 34.258,54.477 34.113,54.45C33.938,54.414 33.746,54.399 33.543,54.399C32.809,54.399 32.551,54.703 32.551,54.969C32.551,55.192 32.727,55.594 32.926,55.907C33.211,55.762 33.551,55.664 33.707,55.664C34.098,55.664 34.441,56.035 34.625,56.473C34.363,56.504 34.312,56.516 34.051,56.516C33.336,56.516 32.852,56.262 32.754,56.262C32.742,56.262 32.723,56.266 32.723,56.282C32.723,56.383 32.926,56.645 33.324,56.789C33.848,56.985 34.637,57.063 34.766,57.086C34.766,57.11 34.633,57.356 34.484,57.403C34.453,57.414 34.43,57.414 34.391,57.407C33.844,57.297 33.691,57.254 32.996,56.989C32.973,56.981 32.961,56.993 32.961,57.016C32.961,57.289 33.672,57.899 34.312,58.129C33.777,58.813 33.113,59.508 32.801,60.567C32.711,60.575 32.625,60.578 32.535,60.578C30.953,60.578 29.387,59.559 29.387,58.246C29.387,57.547 29.699,57.059 30.09,56.52C30.316,56.559 30.523,56.578 30.688,56.578C31.402,56.578 31.793,56.196 31.82,55.817C31.82,55.481 31.547,55.223 31.117,55.223C30.449,55.223 29.242,55.844 28.02,55.844C28.141,55.934 28.34,56.032 28.578,56.121C27.863,56.766 27.387,57.629 27.203,58.551L25.336,61.543C25.02,62.047 24.355,63.032 23.355,63.797C24.562,63.797 25.367,63.825 26.391,62.203L27.348,60.672C27.422,60.871 27.508,61.063 27.609,61.254L25.703,64.305C25.387,64.813 24.727,65.785 23.723,66.559C24.934,66.559 25.734,66.586 26.758,64.965L28.398,62.34C28.523,62.469 28.652,62.598 28.789,62.719L26.473,66.426C26.152,66.934 25.5,67.907 24.492,68.676C25.703,68.676 26.504,68.707 27.527,67.086L29.785,63.473C29.934,63.567 30.086,63.657 30.246,63.743L27.488,68.157C27.172,68.661 26.516,69.629 25.508,70.407C26.719,70.407 27.52,70.434 28.547,68.817L31.383,64.274C31.551,64.336 31.723,64.399 31.895,64.453L28.688,69.586C28.375,70.086 27.703,71.075 26.711,71.836C27.918,71.836 28.723,71.864 29.742,70.246L33.16,64.778C33.195,64.782 33.23,64.785 33.266,64.793C33.359,65.09 33.422,65.368 33.422,65.641C33.422,67.36 32.297,68.879 30.941,70.051C31.027,70.086 31.18,70.102 31.316,70.102C31.598,70.102 31.777,70.086 31.906,70.063C31.59,70.778 30.918,71.7 30.578,72.172C30.133,72.094 29.488,72.032 29.066,72.032C28.625,72.032 28.574,72.289 28.574,72.52C28.574,72.922 28.762,73.243 28.98,73.418C29.062,73.215 29.227,72.942 30.043,72.942C30.059,72.942 30.09,72.942 30.125,72.946C29.887,73.211 29.141,73.813 29.141,74.301C29.141,74.621 29.492,75.106 29.961,75.106C29.934,75 29.934,74.907 29.934,74.832C29.934,74.442 30.285,73.981 30.578,73.657C30.57,73.754 30.574,73.743 30.574,73.856C30.574,74.785 30.66,75.215 31.25,75.215C31.539,75.215 31.738,75.055 31.809,75.008C31.426,74.653 31.406,74.375 31.406,73.856C31.406,73.719 31.406,73.586 31.41,73.403C31.41,73.282 31.406,73.125 31.391,73.008C31.602,72.981 31.688,72.981 31.848,72.981C31.848,72.981 32.688,72.914 32.891,73.352C33.117,73.141 33.449,72.848 33.449,72.524C33.449,72.309 33.348,72.063 32.914,72.063C32.75,72.063 32.234,72.164 31.805,72.164C31.922,71.907 32.438,71.153 32.883,70.606C32.949,70.817 33.055,71.047 33.289,71.235C33.324,70.883 33.527,69.77 34.078,69.118C34.145,69.559 34.23,70.008 34.23,70.961C34.23,73.274 33.672,74.985 32.492,75.309C32.645,75.578 32.973,75.817 33.309,75.817C33.738,75.817 33.977,75.328 34.215,74.868C34.34,75.207 34.684,76.043 35.031,76.043C35.379,76.043 35.723,75.207 35.848,74.868C36.086,75.328 36.324,75.817 36.754,75.817C37.094,75.817 37.418,75.578 37.57,75.309C36.391,74.985 35.832,73.274 35.832,70.961C35.832,70.008 35.918,69.559 35.984,69.118C36.535,69.77 36.742,70.883 36.773,71.235C37.008,71.047 37.113,70.817 37.18,70.606C37.625,71.153 38.141,71.907 38.258,72.164C37.828,72.164 37.312,72.063 37.148,72.063C36.715,72.063 36.613,72.309 36.613,72.524C36.613,72.848 36.945,73.141 37.172,73.352C37.375,72.914 38.215,72.981 38.215,72.981C38.379,72.981 38.465,72.981 38.676,73.008C38.656,73.125 38.652,73.282 38.656,73.403L38.656,73.856C38.656,74.375 38.637,74.653 38.254,75.008C38.324,75.055 38.523,75.215 38.812,75.215C39.402,75.215 39.488,74.785 39.488,73.856C39.488,73.743 39.492,73.754 39.484,73.657C39.777,73.981 40.129,74.442 40.129,74.832C40.129,74.907 40.133,75 40.102,75.106C40.57,75.106 40.922,74.621 40.922,74.301C40.922,73.813 40.176,73.211 39.938,72.946C39.977,72.942 40.004,72.942 40.02,72.942C40.836,72.942 41,73.215 41.082,73.418C41.301,73.243 41.488,72.922 41.488,72.52C41.488,72.289 41.438,72.032 40.996,72.032C40.574,72.032 39.93,72.094 39.484,72.172C39.145,71.7 38.473,70.778 38.156,70.063C38.285,70.086 38.465,70.102 38.746,70.102C38.887,70.102 39.035,70.086 39.121,70.051C37.77,68.879 36.641,67.36 36.641,65.641C36.641,65.368 36.703,65.09 36.797,64.793C36.832,64.785 36.867,64.782 36.902,64.778L40.32,70.246C41.344,71.864 42.145,71.836 43.355,71.836C42.359,71.075 41.688,70.086 41.375,69.586L38.168,64.453C38.344,64.399 38.512,64.336 38.68,64.274L41.52,68.817C42.543,70.434 43.344,70.407 44.555,70.407C43.547,69.629 42.895,68.661 42.574,68.157L39.82,63.743C39.977,63.657 40.129,63.567 40.277,63.473L42.535,67.086C43.559,68.707 44.359,68.676 45.57,68.676C44.562,67.907 43.91,66.934 43.59,66.426L41.273,62.719C41.41,62.598 41.539,62.469 41.66,62.34L43.305,64.965C44.328,66.586 45.129,66.559 46.34,66.559C45.336,65.785 44.68,64.813 44.359,64.305L42.453,61.254C42.555,61.063 42.645,60.871 42.715,60.672L43.672,62.203ZM28.367,58.692C28.367,57.551 29.195,56.653 29.488,56.399C29.559,56.414 29.629,56.43 29.699,56.446C29.387,56.825 28.84,57.457 28.84,58.297C28.84,59.965 30.621,61.414 32.641,61.414C32.629,61.559 32.621,61.707 32.621,61.864C32.621,62.11 32.633,62.336 32.656,62.551C30.375,62.539 28.367,60.688 28.367,58.692ZM31.461,72.368L31.445,72.407L31.484,72.407C32.125,72.407 32.438,72.36 32.645,72.328C32.754,72.317 32.832,72.301 32.914,72.301C33.078,72.301 33.207,72.321 33.207,72.524C33.207,72.661 33.047,72.875 32.891,73C32.656,72.782 32.328,72.735 31.848,72.735C31.625,72.735 31.328,72.778 31.172,72.797L31.148,72.801L31.121,72.805L31.129,72.879C31.148,73.012 31.172,73.176 31.172,73.403L31.168,73.602L31.164,73.856C31.164,74.399 31.238,74.707 31.43,74.942C31.383,74.961 31.301,74.977 31.25,74.977C30.91,74.977 30.812,74.828 30.812,73.856C30.812,73.661 30.805,73.477 30.797,73.356L30.785,73.172L30.746,73.207C30.242,73.59 29.727,74.274 29.695,74.785C29.543,74.688 29.379,74.469 29.379,74.301C29.379,74.02 29.801,73.602 30.285,73.118L30.562,72.836L30.602,72.801L30.508,72.778C30.402,72.75 30.211,72.703 30.043,72.703C29.5,72.703 29.16,72.805 28.949,73.035C28.871,72.926 28.809,72.668 28.809,72.52C28.809,72.422 28.828,72.356 28.867,72.317C28.914,72.27 28.988,72.27 29.055,72.27L29.066,72.27C29.668,72.27 30.387,72.379 30.664,72.422L30.684,72.426L30.691,72.414C30.742,72.348 31.887,70.825 32.184,70.016C32.25,69.989 32.309,69.969 32.43,69.969C32.656,69.969 32.719,70.121 32.781,70.356C32.066,71.227 31.621,71.903 31.461,72.368ZM37.633,69.969C37.754,69.969 37.812,69.989 37.883,70.016C38.18,70.825 39.324,72.348 39.371,72.414L39.383,72.426L39.398,72.422C39.68,72.379 40.395,72.27 40.996,72.27L41.012,72.27C41.074,72.27 41.148,72.27 41.195,72.317C41.234,72.356 41.254,72.422 41.254,72.52C41.254,72.668 41.191,72.926 41.113,73.035C40.906,72.805 40.562,72.703 40.02,72.703C39.855,72.703 39.66,72.75 39.555,72.778L39.465,72.801L39.777,73.118C40.266,73.602 40.684,74.02 40.684,74.301C40.684,74.469 40.52,74.688 40.371,74.785C40.336,74.274 39.82,73.59 39.316,73.207L39.273,73.172L39.266,73.356C39.262,73.477 39.25,73.661 39.25,73.856C39.25,74.828 39.148,74.977 38.812,74.977C38.762,74.977 38.684,74.961 38.633,74.942C38.824,74.707 38.898,74.399 38.898,73.856L38.895,73.602L38.891,73.403C38.891,73.176 38.914,73.012 38.934,72.879L38.941,72.805L38.891,72.797C38.73,72.778 38.438,72.735 38.215,72.735C37.734,72.735 37.406,72.782 37.172,73C37.016,72.875 36.855,72.661 36.855,72.524C36.855,72.321 36.98,72.301 37.148,72.301C37.23,72.301 37.309,72.317 37.418,72.328C37.625,72.36 37.938,72.407 38.578,72.407L38.617,72.407L38.605,72.368C38.441,71.903 37.996,71.227 37.281,70.356C37.344,70.121 37.406,69.969 37.633,69.969ZM34.984,56.672C34.91,56.375 34.762,56.071 34.566,55.84C34.391,55.633 34.102,55.387 33.707,55.387C33.527,55.387 33.23,55.469 33.039,55.551C32.969,55.422 32.828,55.11 32.828,54.969C32.828,54.825 33.074,54.676 33.543,54.676C34.574,54.676 35.191,55.141 35.191,55.922C35.191,56.2 35.082,56.45 34.984,56.672ZM35.445,55.653C35.41,55.434 35.324,55.235 35.195,55.063C35.203,54.86 35.285,54.664 35.613,54.825C35.438,55.004 35.57,55.325 35.57,55.325C35.57,55.325 35.934,55.157 35.855,54.918C36.391,55.047 36.008,55.762 35.445,55.653ZM37.453,62.551C37.48,62.328 37.496,62.098 37.496,61.864C37.496,61.735 37.496,61.582 37.48,61.414C39.477,61.383 41.223,59.95 41.223,58.297C41.223,57.457 40.676,56.825 40.367,56.446C40.434,56.43 40.504,56.414 40.574,56.399C40.867,56.653 41.695,57.551 41.695,58.692C41.695,60.672 39.715,62.512 37.453,62.551Z" style="fill:rgb(35,31,32);fill-rule:nonzero;"/>
        <rect x="52.781" y="55.258" width="3.5" height="20" style="fill:rgb(35,31,32);fill-rule:nonzero;"/>
        <rect x="52.781" y="75.157" width="3.5" height="20.102" style="fill:rgb(237,28,36);fill-rule:nonzero;"/>
        <rect x="52.781" y="95.258" width="3.5" height="20" style="fill:rgb(244,207,0);fill-rule:nonzero;"/>
        <path d="M141.172,58.207C141.773,58.207 142.035,58.602 142.035,59.539L142.035,63.246L143.008,63.246L143.008,59.383C143.008,59.164 142.996,58.961 142.961,58.782C143.176,58.532 143.535,58.207 144.066,58.207C144.711,58.207 145.062,58.602 145.062,59.539L145.062,63.246L146.031,63.246L146.031,59.383C146.031,58.012 145.434,57.34 144.281,57.34C143.535,57.34 143.008,57.785 142.758,58.11C142.492,57.594 142.012,57.34 141.363,57.34C140.574,57.34 140.082,57.871 139.926,58.133L139.902,58.133L139.902,57.485L139.012,57.485L139.012,63.246L139.984,63.246L139.984,58.805C140.152,58.602 140.523,58.207 141.172,58.207ZM136.613,62.598L136.637,62.598L136.637,63.246L137.523,63.246L137.523,57.485L136.555,57.485L136.555,61.891C136.359,62.129 135.977,62.528 135.391,62.528C134.742,62.528 134.43,62.141 134.43,61.196L134.43,57.485L133.457,57.485L133.457,61.266C133.457,62.825 134.094,63.391 135.113,63.391C135.988,63.391 136.504,62.801 136.613,62.598ZM132.004,57.485L131.031,57.485L131.031,63.246L132.004,63.246L132.004,57.485ZM131.523,56.094C131.91,56.094 132.172,55.805 132.172,55.399C132.172,55 131.91,54.715 131.523,54.715C131.129,54.715 130.863,55 130.863,55.399C130.863,55.805 131.129,56.094 131.523,56.094ZM130.19,57.473C130.098,57.438 129.94,57.379 129.664,57.379C128.934,57.379 128.621,57.809 128.453,58.266L128.429,58.266L128.429,57.485L127.539,57.485L127.539,63.246L128.511,63.246L128.511,59.024C128.656,58.637 128.979,58.243 129.593,58.243C129.854,58.243 130.022,58.313 130.074,58.336L130.19,57.473ZM126.363,62.707L126.004,62.024C125.871,62.153 125.477,62.528 124.793,62.528C123.82,62.528 123.293,61.891 123.234,60.547L126.172,60.547C126.207,60.27 126.246,59.922 126.246,59.43C126.246,58.051 125.574,57.34 124.48,57.34C123.281,57.34 122.285,58.254 122.285,60.293C122.285,62.465 123.195,63.391 124.648,63.391C125.742,63.391 126.207,62.875 126.363,62.707ZM124.422,58.133C125.031,58.133 125.355,58.602 125.355,59.395C125.355,59.575 125.344,59.731 125.332,59.813L123.246,59.813C123.293,58.735 123.738,58.133 124.422,58.133ZM121.684,63.137L121.555,62.36C121.457,62.418 121.242,62.528 120.953,62.528C120.461,62.528 120.27,62.285 120.27,61.469L120.27,58.278L121.527,58.278L121.648,57.485L120.27,57.485L120.27,55.879L119.406,55.879L119.297,57.485L118.602,57.629L118.602,58.278L119.297,58.278L119.297,61.602C119.297,62.875 119.801,63.391 120.785,63.391C121.301,63.391 121.602,63.2 121.684,63.137ZM117.773,57.953C117.582,57.762 117.195,57.34 116.309,57.34C115.371,57.34 114.641,57.977 114.641,58.828C114.641,59.621 115.074,60.09 115.793,60.547L116.152,60.774C116.703,61.121 116.992,61.313 116.992,61.868C116.992,62.239 116.68,62.528 116.105,62.528C115.48,62.528 115.121,62.153 114.941,61.961L114.473,62.731C114.699,62.969 115.168,63.391 116.094,63.391C117.27,63.391 117.93,62.684 117.93,61.77C117.93,60.918 117.449,60.45 116.668,59.981L116.309,59.766C115.793,59.453 115.555,59.215 115.555,58.782C115.555,58.446 115.828,58.168 116.344,58.168C116.887,58.168 117.223,58.504 117.352,58.649L117.773,57.953ZM113.383,57.485L112.41,57.485L112.41,63.246L113.383,63.246L113.383,57.485ZM112.902,56.094C113.285,56.094 113.551,55.805 113.551,55.399C113.551,55 113.285,54.715 112.902,54.715C112.504,54.715 112.242,55 112.242,55.399C112.242,55.805 112.504,56.094 112.902,56.094ZM108.988,58.168C109.66,58.168 109.984,58.567 109.984,59.539L109.984,63.246L110.957,63.246L110.957,59.465C110.957,57.907 110.309,57.34 109.277,57.34C108.375,57.34 107.859,57.93 107.754,58.133L107.73,58.133L107.73,57.485L106.84,57.485L106.84,63.246L107.812,63.246L107.812,58.805C108.004,58.567 108.402,58.168 108.988,58.168ZM105.352,57.485L104.383,57.485L104.383,63.246L105.352,63.246L105.352,57.485ZM104.871,56.094C105.258,56.094 105.52,55.805 105.52,55.399C105.52,55 105.258,54.715 104.871,54.715C104.477,54.715 104.215,55 104.215,55.399C104.215,55.805 104.477,56.094 104.871,56.094ZM98.07,58.207C98.668,58.207 98.934,58.602 98.934,59.539L98.934,63.246L99.906,63.246L99.906,59.383C99.906,59.164 99.895,58.961 99.855,58.782C100.074,58.532 100.434,58.207 100.961,58.207C101.609,58.207 101.957,58.602 101.957,59.539L101.957,63.246L102.93,63.246L102.93,59.383C102.93,58.012 102.328,57.34 101.176,57.34C100.434,57.34 99.906,57.785 99.652,58.11C99.391,57.594 98.91,57.34 98.262,57.34C97.469,57.34 96.977,57.871 96.82,58.133L96.797,58.133L96.797,57.485L95.91,57.485L95.91,63.246L96.883,63.246L96.883,58.805C97.051,58.602 97.422,58.207 98.07,58.207ZM94.613,57.953C94.422,57.762 94.035,57.34 93.148,57.34C92.215,57.34 91.48,57.977 91.48,58.828C91.48,59.621 91.914,60.09 92.633,60.547L92.992,60.774C93.547,61.121 93.832,61.313 93.832,61.868C93.832,62.239 93.52,62.528 92.945,62.528C92.32,62.528 91.961,62.153 91.781,61.961L91.312,62.731C91.539,62.969 92.008,63.391 92.934,63.391C94.109,63.391 94.77,62.684 94.77,61.77C94.77,60.918 94.289,60.45 93.508,59.981L93.148,59.766C92.633,59.453 92.395,59.215 92.395,58.782C92.395,58.446 92.668,58.168 93.184,58.168C93.727,58.168 94.062,58.504 94.191,58.649L94.613,57.953ZM90.531,62.707L90.172,62.024C90.039,62.153 89.645,62.528 88.961,62.528C87.988,62.528 87.461,61.891 87.402,60.547L90.34,60.547C90.379,60.27 90.414,59.922 90.414,59.43C90.414,58.051 89.742,57.34 88.648,57.34C87.449,57.34 86.453,58.254 86.453,60.293C86.453,62.465 87.363,63.391 88.816,63.391C89.91,63.391 90.379,62.875 90.531,62.707ZM88.59,58.133C89.199,58.133 89.523,58.602 89.523,59.395C89.523,59.575 89.512,59.731 89.5,59.813L87.414,59.813C87.461,58.735 87.906,58.133 88.59,58.133ZM84.316,62.633L84.34,62.633L84.34,63.246L85.23,63.246L85.23,54.653L84.258,54.762L84.258,57.524C84.078,57.45 83.812,57.379 83.441,57.379C82.219,57.379 80.898,58.121 80.898,60.45C80.898,62.551 81.82,63.391 82.914,63.391C83.824,63.391 84.207,62.813 84.316,62.633ZM83.176,62.528C82.504,62.528 81.906,61.996 81.906,60.414C81.906,58.782 82.613,58.207 83.512,58.207C83.859,58.207 84.09,58.301 84.258,58.411L84.258,61.961C84.125,62.153 83.789,62.528 83.176,62.528ZM77.742,58.168C78.414,58.168 78.738,58.567 78.738,59.539L78.738,63.246L79.711,63.246L79.711,59.465C79.711,57.907 79.062,57.34 78.027,57.34C77.129,57.34 76.613,57.93 76.504,58.133L76.48,58.133L76.48,57.485L75.594,57.485L75.594,63.246L76.566,63.246L76.566,58.805C76.758,58.567 77.152,58.168 77.742,58.168ZM73.191,62.598L73.219,62.598L73.219,63.246L74.105,63.246L74.105,57.485L73.133,57.485L73.133,61.891C72.941,62.129 72.559,62.528 71.969,62.528C71.32,62.528 71.008,62.141 71.008,61.196L71.008,57.485L70.035,57.485L70.035,61.266C70.035,62.825 70.672,63.391 71.691,63.391C72.57,63.391 73.086,62.801 73.191,62.598ZM67.672,60.93C67.672,61.879 67.145,62.383 65.922,62.383L65.273,62.383L65.273,59.477L65.98,59.477C67.062,59.477 67.672,60.043 67.672,60.93ZM67.516,57.114C67.516,58.063 66.93,58.649 65.812,58.649L65.273,58.649L65.273,55.793L65.824,55.793C66.988,55.793 67.516,56.36 67.516,57.114ZM68.574,57.078C68.574,55.793 67.793,54.965 65.824,54.965L64.23,54.965L64.23,63.246L65.922,63.246C67.902,63.246 68.789,62.297 68.789,61C68.789,59.899 68.082,59.176 67.23,59.008L67.23,58.985C67.949,58.793 68.574,58.231 68.574,57.078Z" style="fill:rgb(35,31,32);fill-rule:nonzero;"/>
        <path d="M179.02,74.707L178.66,74.024C178.527,74.153 178.133,74.528 177.449,74.528C176.477,74.528 175.949,73.891 175.887,72.547L178.828,72.547C178.863,72.27 178.902,71.922 178.902,71.43C178.902,70.051 178.23,69.34 177.137,69.34C175.938,69.34 174.941,70.254 174.941,72.293C174.941,74.465 175.852,75.391 177.305,75.391C178.398,75.391 178.863,74.875 179.02,74.707ZM177.078,70.133C177.688,70.133 178.012,70.602 178.012,71.395C178.012,71.575 178,71.731 177.988,71.813L175.902,71.813C175.949,70.735 176.395,70.133 177.078,70.133ZM173.715,69.485L172.746,69.485L172.746,75.246L173.715,75.246L173.715,69.485ZM173.238,68.094C173.621,68.094 173.883,67.805 173.883,67.399C173.883,67 173.621,66.715 173.238,66.715C172.84,66.715 172.578,67 172.578,67.399C172.578,67.805 172.84,68.094 173.238,68.094ZM168.953,76.961C168.27,76.961 167.934,76.649 167.934,76.039C167.934,75.461 168.246,75.188 168.52,75.032C168.652,75.055 168.809,75.067 168.965,75.067L169.695,75.067C170.285,75.067 170.668,75.282 170.668,75.832C170.668,76.422 170.129,76.961 168.953,76.961ZM171.664,75.692C171.664,74.598 170.848,74.164 169.758,74.164L169.023,74.164C168.605,74.164 168.438,73.996 168.438,73.758C168.438,73.457 168.711,73.301 168.906,73.219C169,73.231 169.098,73.231 169.203,73.231C170.332,73.231 171.195,72.496 171.195,71.274C171.195,70.891 171.102,70.532 170.922,70.243L171.641,70.243L171.773,69.485L170.02,69.485C169.781,69.391 169.527,69.34 169.254,69.34C168.172,69.34 167.297,69.977 167.297,71.274C167.297,72.188 167.691,72.762 168.281,73.039L168.281,73.063C168.137,73.133 167.586,73.375 167.586,73.996C167.586,74.36 167.715,74.621 167.957,74.801L167.957,74.825C167.691,74.969 166.996,75.379 166.996,76.231C166.996,77.227 167.656,77.789 168.879,77.789C170.586,77.789 171.664,76.926 171.664,75.692ZM170.25,71.274C170.25,72.102 169.793,72.426 169.242,72.426C168.711,72.426 168.246,72.102 168.246,71.274C168.246,70.446 168.711,70.121 169.266,70.121C169.793,70.121 170.25,70.446 170.25,71.274ZM165.281,72.368C165.281,73.891 164.812,74.528 164.02,74.528C163.23,74.528 162.75,73.891 162.75,72.368C162.75,70.84 163.215,70.168 164.008,70.168C164.801,70.168 165.281,70.84 165.281,72.368ZM161.742,72.368C161.742,74.528 162.711,75.391 163.984,75.391C165.246,75.391 166.289,74.512 166.289,72.368C166.289,70.243 165.316,69.34 164.043,69.34C162.809,69.34 161.742,70.243 161.742,72.368ZM160.23,66.653L159.258,66.762L159.258,73.985C159.258,75.004 159.699,75.356 160.348,75.356C160.781,75.356 161.031,75.246 161.129,75.2L161.043,74.477C160.984,74.5 160.863,74.551 160.684,74.551C160.348,74.551 160.23,74.383 160.23,73.903L160.23,66.653ZM157.035,72.368C157.035,73.891 156.57,74.528 155.777,74.528C154.984,74.528 154.504,73.891 154.504,72.368C154.504,70.84 154.973,70.168 155.766,70.168C156.559,70.168 157.035,70.84 157.035,72.368ZM153.496,72.368C153.496,74.528 154.469,75.391 155.742,75.391C157,75.391 158.043,74.512 158.043,72.368C158.043,70.243 157.074,69.34 155.801,69.34C154.566,69.34 153.496,70.243 153.496,72.368ZM150.34,70.168C151.012,70.168 151.336,70.567 151.336,71.539L151.336,75.246L152.309,75.246L152.309,71.465C152.309,69.907 151.66,69.34 150.629,69.34C149.73,69.34 149.211,69.93 149.105,70.133L149.082,70.133L149.082,69.485L148.191,69.485L148.191,75.246L149.164,75.246L149.164,70.805C149.355,70.567 149.754,70.168 150.34,70.168ZM144.773,70.168C145.445,70.168 145.77,70.567 145.77,71.539L145.77,75.246L146.742,75.246L146.742,71.465C146.742,69.942 146.105,69.34 145.098,69.34C144.172,69.34 143.742,69.895 143.621,70.075L143.598,70.075L143.598,66.653L142.625,66.762L142.625,75.246L143.598,75.246L143.598,70.805C143.789,70.567 144.184,70.168 144.773,70.168ZM141.605,69.918C141.426,69.715 141.016,69.34 140.141,69.34C139,69.34 137.73,70.145 137.73,72.356C137.73,74.61 138.75,75.391 140.031,75.391C140.934,75.391 141.375,74.969 141.531,74.789L141.137,74.118C141.016,74.25 140.715,74.528 140.129,74.528C139.301,74.528 138.738,73.973 138.738,72.282C138.738,70.758 139.383,70.168 140.211,70.168C140.789,70.168 141.09,70.493 141.195,70.602L141.605,69.918ZM136.816,74.707L136.457,74.024C136.324,74.153 135.93,74.528 135.246,74.528C134.273,74.528 133.746,73.891 133.684,72.547L136.625,72.547C136.66,72.27 136.695,71.922 136.695,71.43C136.695,70.051 136.023,69.34 134.934,69.34C133.734,69.34 132.738,70.254 132.738,72.293C132.738,74.465 133.648,75.391 135.102,75.391C136.191,75.391 136.66,74.875 136.816,74.707ZM134.871,70.133C135.484,70.133 135.809,70.602 135.809,71.395C135.809,71.575 135.797,71.731 135.785,71.813L133.695,71.813C133.746,70.735 134.188,70.133 134.871,70.133ZM133.047,66.965L127.516,66.965L127.516,67.793L129.727,67.793L129.727,75.246L130.77,75.246L130.77,67.793L132.977,67.793L133.047,66.965ZM123.496,76.926C124.133,76.7 124.891,76.184 124.891,75.09C124.891,74.297 124.566,73.914 124.098,73.914C123.762,73.914 123.473,74.129 123.473,74.563C123.473,75.004 123.762,75.246 124.133,75.246L124.168,75.246C124.168,75.942 123.797,76.254 123.293,76.504L123.496,76.926ZM119.836,76.961C119.152,76.961 118.816,76.649 118.816,76.039C118.816,75.461 119.129,75.188 119.406,75.032C119.535,75.055 119.691,75.067 119.848,75.067L120.582,75.067C121.168,75.067 121.555,75.282 121.555,75.832C121.555,76.422 121.012,76.961 119.836,76.961ZM122.547,75.692C122.547,74.598 121.734,74.164 120.641,74.164L119.91,74.164C119.488,74.164 119.32,73.996 119.32,73.758C119.32,73.457 119.598,73.301 119.789,73.219C119.887,73.231 119.98,73.231 120.09,73.231C121.219,73.231 122.082,72.496 122.082,71.274C122.082,70.891 121.984,70.532 121.805,70.243L122.523,70.243L122.656,69.485L120.906,69.485C120.664,69.391 120.414,69.34 120.137,69.34C119.059,69.34 118.18,69.977 118.18,71.274C118.18,72.188 118.578,72.762 119.164,73.039L119.164,73.063C119.02,73.133 118.469,73.375 118.469,73.996C118.469,74.36 118.602,74.621 118.84,74.801L118.84,74.825C118.578,74.969 117.879,75.379 117.879,76.231C117.879,77.227 118.539,77.789 119.766,77.789C121.469,77.789 122.547,76.926 122.547,75.692ZM121.133,71.274C121.133,72.102 120.676,72.426 120.125,72.426C119.598,72.426 119.129,72.102 119.129,71.274C119.129,70.446 119.598,70.121 120.148,70.121C120.676,70.121 121.133,70.446 121.133,71.274ZM114.977,70.168C115.648,70.168 115.973,70.567 115.973,71.539L115.973,75.246L116.945,75.246L116.945,71.465C116.945,69.907 116.297,69.34 115.266,69.34C114.363,69.34 113.848,69.93 113.742,70.133L113.719,70.133L113.719,69.485L112.828,69.485L112.828,75.246L113.801,75.246L113.801,70.805C113.992,70.567 114.391,70.168 114.977,70.168ZM110.43,74.598L110.453,74.598L110.453,75.246L111.34,75.246L111.34,69.485L110.367,69.485L110.367,73.891C110.176,74.129 109.793,74.528 109.203,74.528C108.559,74.528 108.246,74.141 108.246,73.196L108.246,69.485L107.273,69.485L107.273,73.266C107.273,74.825 107.91,75.391 108.93,75.391C109.805,75.391 110.32,74.801 110.43,74.598ZM103.891,70.168C104.562,70.168 104.887,70.567 104.887,71.539L104.887,75.246L105.855,75.246L105.855,71.465C105.855,69.942 105.223,69.34 104.211,69.34C103.289,69.34 102.855,69.895 102.738,70.075L102.711,70.075L102.711,66.653L101.742,66.762L101.742,75.246L102.711,75.246L102.711,70.805C102.906,70.567 103.301,70.168 103.891,70.168ZM100.723,69.918C100.539,69.715 100.133,69.34 99.258,69.34C98.117,69.34 96.844,70.145 96.844,72.356C96.844,74.61 97.863,75.391 99.148,75.391C100.051,75.391 100.492,74.969 100.648,74.789L100.254,74.118C100.133,74.25 99.832,74.528 99.246,74.528C98.418,74.528 97.852,73.973 97.852,72.282C97.852,70.758 98.5,70.168 99.328,70.168C99.906,70.168 100.203,70.493 100.312,70.602L100.723,69.918ZM95.812,69.953C95.621,69.762 95.238,69.34 94.348,69.34C93.414,69.34 92.68,69.977 92.68,70.828C92.68,71.621 93.113,72.09 93.832,72.547L94.191,72.774C94.746,73.121 95.031,73.313 95.031,73.868C95.031,74.239 94.723,74.528 94.145,74.528C93.52,74.528 93.16,74.153 92.98,73.961L92.512,74.731C92.742,74.969 93.207,75.391 94.133,75.391C95.309,75.391 95.969,74.684 95.969,73.77C95.969,72.918 95.488,72.45 94.707,71.981L94.348,71.766C93.832,71.453 93.594,71.215 93.594,70.782C93.594,70.446 93.867,70.168 94.387,70.168C94.926,70.168 95.262,70.504 95.395,70.649L95.812,69.953ZM92.117,69.473C92.02,69.438 91.863,69.379 91.59,69.379C90.855,69.379 90.543,69.809 90.375,70.266L90.352,70.266L90.352,69.485L89.465,69.485L89.465,75.246L90.438,75.246L90.438,71.024C90.582,70.637 90.906,70.243 91.516,70.243C91.781,70.243 91.949,70.313 91.996,70.336L92.117,69.473ZM87.234,72.368C87.234,73.891 86.766,74.528 85.973,74.528C85.18,74.528 84.699,73.891 84.699,72.368C84.699,70.84 85.168,70.168 85.961,70.168C86.754,70.168 87.234,70.84 87.234,72.368ZM83.691,72.368C83.691,74.528 84.664,75.391 85.938,75.391C87.195,75.391 88.242,74.512 88.242,72.368C88.242,70.243 87.27,69.34 85.996,69.34C84.762,69.34 83.691,70.243 83.691,72.368ZM79.938,75.246L79.938,71.684L82.66,71.684L82.66,70.856L79.938,70.856L79.938,67.793L82.891,67.793L82.961,66.965L78.895,66.965L78.895,75.246L79.938,75.246ZM75.582,69.473C75.484,69.438 75.328,69.379 75.055,69.379C74.32,69.379 74.008,69.809 73.84,70.266L73.816,70.266L73.816,69.485L72.93,69.485L72.93,75.246L73.902,75.246L73.902,71.024C74.047,70.637 74.367,70.243 74.98,70.243C75.246,70.243 75.414,70.313 75.461,70.336L75.582,69.473ZM70.527,74.598L70.555,74.598L70.555,75.246L71.441,75.246L71.441,69.485L70.469,69.485L70.469,73.891C70.277,74.129 69.895,74.528 69.305,74.528C68.656,74.528 68.344,74.141 68.344,73.196L68.344,69.485L67.371,69.485L67.371,73.266C67.371,74.825 68.008,75.391 69.027,75.391C69.906,75.391 70.422,74.801 70.527,74.598ZM69.055,67.828C69.055,67.457 68.801,67.219 68.477,67.219C68.152,67.219 67.902,67.457 67.902,67.828C67.902,68.203 68.152,68.442 68.477,68.442C68.801,68.442 69.055,68.203 69.055,67.828ZM70.902,67.828C70.902,67.457 70.648,67.219 70.324,67.219C70,67.219 69.75,67.457 69.75,67.828C69.75,68.203 70,68.442 70.324,68.442C70.648,68.442 70.902,68.203 70.902,67.828ZM66.449,70.278L66.57,69.485L65.273,69.485L65.273,68.453C65.273,67.7 65.523,67.446 65.98,67.446C66.234,67.446 66.414,67.543 66.508,67.602L66.715,66.797C66.617,66.739 66.305,66.582 65.898,66.582C65.047,66.582 64.301,67.086 64.301,68.344L64.301,69.496L63.605,69.629L63.605,70.278L64.301,70.278L64.301,75.246L65.273,75.246L65.273,70.278L66.449,70.278Z" style="fill:rgb(35,31,32);fill-rule:nonzero;"/>
        <path d="M127.961,87.137L127.828,86.36C127.734,86.418 127.516,86.528 127.23,86.528C126.738,86.528 126.543,86.285 126.543,85.469L126.543,82.278L127.805,82.278L127.926,81.485L126.543,81.485L126.543,79.879L125.68,79.879L125.574,81.485L124.875,81.629L124.875,82.278L125.574,82.278L125.574,85.602C125.574,86.875 126.078,87.391 127.062,87.391C127.578,87.391 127.875,87.2 127.961,87.137ZM124.504,81.473C124.41,81.438 124.254,81.379 123.977,81.379C123.246,81.379 122.934,81.809 122.766,82.266L122.742,82.266L122.742,81.485L121.852,81.485L121.852,87.246L122.824,87.246L122.824,83.024C122.969,82.637 123.293,82.243 123.906,82.243C124.168,82.243 124.336,82.313 124.387,82.336L124.504,81.473ZM118.434,82.168C119.105,82.168 119.43,82.567 119.43,83.539L119.43,87.246L120.402,87.246L120.402,83.465C120.402,81.942 119.766,81.34 118.758,81.34C117.832,81.34 117.402,81.895 117.281,82.075L117.258,82.075L117.258,78.653L116.285,78.762L116.285,87.246L117.258,87.246L117.258,82.805C117.449,82.567 117.844,82.168 118.434,82.168ZM113.859,84.727L113.859,85.996C113.742,86.176 113.465,86.563 112.902,86.563C112.422,86.563 112.133,86.262 112.133,85.672C112.133,85.039 112.625,84.774 113.551,84.739L113.859,84.727ZM113.859,84.004L113.562,84.004C112.254,84.004 111.16,84.45 111.16,85.782C111.16,86.719 111.82,87.391 112.695,87.391C113.43,87.391 113.777,86.899 113.91,86.61L113.934,86.61C113.945,86.899 113.957,87.078 113.969,87.246L114.895,87.246C114.867,87.09 114.82,86.539 114.82,86.047L114.82,83.418C114.82,81.965 114.195,81.34 113.02,81.34C112.098,81.34 111.543,81.785 111.293,82.039L111.699,82.688C111.918,82.493 112.301,82.168 112.875,82.168C113.5,82.168 113.859,82.481 113.859,83.453L113.859,84.004ZM110.598,82.278L110.719,81.485L109.422,81.485L109.422,80.453C109.422,79.7 109.672,79.446 110.129,79.446C110.383,79.446 110.562,79.543 110.656,79.602L110.859,78.797C110.766,78.739 110.453,78.582 110.043,78.582C109.191,78.582 108.449,79.086 108.449,80.344L108.449,81.496L107.754,81.629L107.754,82.278L108.449,82.278L108.449,87.246L109.422,87.246L109.422,82.278L110.598,82.278ZM101.859,82.207C102.461,82.207 102.727,82.602 102.727,83.539L102.727,87.246L103.695,87.246L103.695,83.383C103.695,83.164 103.684,82.961 103.648,82.782C103.863,82.532 104.227,82.207 104.754,82.207C105.402,82.207 105.75,82.602 105.75,83.539L105.75,87.246L106.723,87.246L106.723,83.383C106.723,82.012 106.121,81.34 104.969,81.34C104.227,81.34 103.695,81.785 103.445,82.11C103.18,81.594 102.699,81.34 102.055,81.34C101.262,81.34 100.77,81.871 100.613,82.133L100.59,82.133L100.59,81.485L99.699,81.485L99.699,87.246L100.672,87.246L100.672,82.805C100.84,82.602 101.215,82.207 101.859,82.207ZM97.301,86.598L97.324,86.598L97.324,87.246L98.215,87.246L98.215,81.485L97.242,81.485L97.242,85.891C97.051,86.129 96.664,86.528 96.078,86.528C95.43,86.528 95.117,86.141 95.117,85.196L95.117,81.485L94.145,81.485L94.145,85.266C94.145,86.825 94.781,87.391 95.801,87.391C96.676,87.391 97.191,86.801 97.301,86.598ZM91.758,84.727L91.758,85.996C91.637,86.176 91.359,86.563 90.797,86.563C90.316,86.563 90.027,86.262 90.027,85.672C90.027,85.039 90.52,84.774 91.445,84.739L91.758,84.727ZM91.758,84.004L91.457,84.004C90.148,84.004 89.059,84.45 89.059,85.782C89.059,86.719 89.719,87.391 90.594,87.391C91.324,87.391 91.672,86.899 91.805,86.61L91.828,86.61C91.84,86.899 91.852,87.078 91.863,87.246L92.789,87.246C92.766,87.09 92.719,86.539 92.719,86.047L92.719,83.418C92.719,81.965 92.094,81.34 90.918,81.34C89.992,81.34 89.441,81.785 89.188,82.039L89.598,82.688C89.812,82.493 90.195,82.168 90.773,82.168C91.398,82.168 91.758,82.481 91.758,83.453L91.758,84.004ZM84.461,83.875L84.918,83.875C85.109,83.875 85.301,83.864 85.48,83.852L87.195,87.246L88.422,87.246L86.477,83.598C87.426,83.192 87.895,82.364 87.895,81.282C87.895,79.758 86.957,78.965 84.965,78.965L83.418,78.965L83.418,87.246L84.461,87.246L84.461,83.875ZM86.777,81.34C86.777,82.422 86.176,83.047 84.918,83.047L84.461,83.047L84.461,79.793L84.965,79.793C86.199,79.793 86.777,80.297 86.777,81.34ZM78.27,86.633L78.293,86.633L78.293,87.246L79.18,87.246L79.18,78.653L78.207,78.762L78.207,81.524C78.027,81.45 77.766,81.379 77.395,81.379C76.168,81.379 74.848,82.121 74.848,84.45C74.848,86.551 75.773,87.391 76.863,87.391C77.777,87.391 78.16,86.813 78.27,86.633ZM77.129,86.528C76.457,86.528 75.855,85.996 75.855,84.414C75.855,82.782 76.566,82.207 77.465,82.207C77.812,82.207 78.039,82.301 78.207,82.411L78.207,85.961C78.078,86.153 77.742,86.528 77.129,86.528ZM71.691,82.168C72.363,82.168 72.688,82.567 72.688,83.539L72.688,87.246L73.66,87.246L73.66,83.465C73.66,81.907 73.012,81.34 71.98,81.34C71.082,81.34 70.566,81.93 70.457,82.133L70.434,82.133L70.434,81.485L69.547,81.485L69.547,87.246L70.516,87.246L70.516,82.805C70.711,82.567 71.105,82.168 71.691,82.168ZM67.145,86.598L67.168,86.598L67.168,87.246L68.059,87.246L68.059,81.485L67.086,81.485L67.086,85.891C66.895,86.129 66.508,86.528 65.922,86.528C65.273,86.528 64.961,86.141 64.961,85.196L64.961,81.485L63.988,81.485L63.988,85.266C63.988,86.825 64.625,87.391 65.645,87.391C66.52,87.391 67.035,86.801 67.145,86.598Z" style="fill:rgb(35,31,32);fill-rule:nonzero;"/>
        <path d="M28.086,25.84C27.866,25.693 27.383,25.514 26.805,25.514C25.525,25.514 24.275,26.354 24.275,28.527C24.275,30.627 25.251,31.666 26.637,31.666C27.141,31.666 27.54,31.572 27.845,31.456L27.845,29.367L27.204,29.22C27.099,29.199 27.057,29.168 27.057,29.104C27.057,29.01 27.131,28.884 27.173,28.79L29.566,28.79C29.566,28.79 29.577,28.852 29.577,28.905C29.577,29.073 29.482,29.199 29.22,29.272L28.978,29.336L28.978,31.53C28.695,31.782 27.918,32.348 26.375,32.348C24.527,32.348 23.078,31.204 23.078,28.653C23.078,25.924 25.105,24.853 26.847,24.853C27.96,24.853 28.516,25.168 28.863,25.325C28.894,25.64 28.926,26.291 28.926,26.375C28.926,26.7 28.831,26.91 28.558,26.91C28.474,26.91 28.39,26.889 28.317,26.868L28.086,25.84Z" style="fill:rgb(35,31,32);fill-rule:nonzero;"/>
        <path d="M33.365,29.146C33.386,29.052 33.417,28.874 33.417,28.695C33.417,28.118 33.207,27.624 32.598,27.624C31.979,27.624 31.612,28.118 31.538,29.146L33.365,29.146ZM31.528,29.703C31.538,31.005 32.158,31.614 33.06,31.614C33.732,31.614 34.11,31.351 34.372,31.131C34.478,31.215 34.53,31.393 34.53,31.488C34.53,31.75 33.837,32.348 32.672,32.348C31.381,32.348 30.415,31.614 30.415,29.787C30.415,27.96 31.517,27.026 32.714,27.026C33.9,27.026 34.498,27.75 34.498,28.8C34.498,29.073 34.446,29.44 34.372,29.703L31.528,29.703Z" style="fill:rgb(35,31,32);fill-rule:nonzero;"/>
        <path d="M38.36,27.729L37.079,27.729L37.079,31.656L37.793,31.792C37.898,31.813 37.94,31.845 37.94,31.929C37.94,32.033 37.867,32.191 37.835,32.222L35.337,32.222C35.337,32.222 35.327,32.159 35.327,32.128C35.327,31.939 35.452,31.855 35.652,31.782L36.009,31.656L36.009,27.729L35.232,27.729C35.232,27.729 35.221,27.666 35.221,27.635C35.221,27.435 35.347,27.33 35.547,27.278L36.009,27.152L36.009,27.047C36.009,25.357 37.037,24.538 37.94,24.538C38.465,24.538 38.675,24.769 38.675,25.095C38.675,25.357 38.518,25.504 38.36,25.588C38.266,25.483 37.993,25.283 37.667,25.283C37.216,25.283 37.058,25.535 37.058,26.155C37.058,26.48 37.079,27.152 37.079,27.152L38.476,27.152L38.36,27.729Z" style="fill:rgb(35,31,32);fill-rule:nonzero;"/>
        <path d="M42.253,26.302C41.917,26.302 41.676,26.071 41.676,25.735C41.676,25.378 41.917,25.147 42.253,25.147C42.568,25.147 42.81,25.378 42.81,25.735C42.81,26.071 42.568,26.302 42.253,26.302ZM39.944,29.682C39.944,31.089 40.511,31.719 41.287,31.719C42.064,31.719 42.642,31.11 42.642,29.703C42.642,28.296 42.064,27.645 41.287,27.645C40.511,27.645 39.944,28.264 39.944,29.682ZM40.353,26.302C40.038,26.302 39.786,26.071 39.786,25.735C39.786,25.378 40.038,25.147 40.353,25.147C40.679,25.147 40.92,25.378 40.92,25.735C40.92,26.071 40.679,26.302 40.353,26.302ZM43.765,29.64C43.765,31.456 42.494,32.348 41.214,32.348C39.902,32.348 38.821,31.509 38.821,29.745C38.821,27.971 40.08,27.026 41.413,27.026C42.726,27.026 43.765,27.813 43.765,29.64Z" style="fill:rgb(35,31,32);fill-rule:nonzero;"/>
        <path d="M46.134,27.992L46.165,27.992C46.386,27.635 46.774,27.026 47.456,27.026C47.95,27.026 48.181,27.257 48.181,27.582C48.181,27.813 48.076,28.012 47.992,28.118C47.908,28.076 47.645,27.96 47.288,27.96C46.711,27.96 46.417,28.191 46.197,28.496L46.197,31.656L46.952,31.792C47.057,31.813 47.099,31.845 47.099,31.929C47.099,32.033 47.015,32.191 46.994,32.222L44.454,32.222C44.454,32.222 44.444,32.159 44.444,32.128C44.444,31.939 44.57,31.855 44.769,31.782L45.136,31.656L45.136,27.771L44.391,27.656C44.391,27.656 44.38,27.593 44.38,27.551C44.38,27.372 44.517,27.246 44.769,27.225L46.197,27.089L46.134,27.992Z" style="fill:rgb(35,31,32);fill-rule:nonzero;"/>
        <path d="M52.107,27.971C51.949,27.824 51.665,27.656 51.225,27.656C50.374,27.656 49.744,28.264 49.744,29.65C49.744,31.005 50.332,31.551 51.036,31.551C51.645,31.551 51.97,31.267 52.107,31.11L52.107,27.971ZM53.167,31.635L53.933,31.74C53.933,31.74 53.944,31.782 53.944,31.824C53.944,32.012 53.807,32.138 53.555,32.159L52.169,32.285L52.169,31.603L52.138,31.603C51.907,31.929 51.466,32.348 50.647,32.348C49.619,32.348 48.653,31.687 48.653,29.86C48.653,27.908 50.017,27.026 51.361,27.026C51.665,27.026 51.928,27.078 52.107,27.12L52.107,25.283L51.361,25.179C51.361,25.179 51.351,25.105 51.351,25.063C51.351,24.885 51.487,24.759 51.739,24.737L53.167,24.601L53.167,31.635Z" style="fill:rgb(35,31,32);fill-rule:nonzero;"/>
        <path d="M57.44,29.146C57.46,29.052 57.492,28.874 57.492,28.695C57.492,28.118 57.282,27.624 56.673,27.624C56.054,27.624 55.686,28.118 55.613,29.146L57.44,29.146ZM55.602,29.703C55.613,31.005 56.232,31.614 57.135,31.614C57.807,31.614 58.185,31.351 58.448,31.131C58.552,31.215 58.605,31.393 58.605,31.488C58.605,31.75 57.912,32.348 56.746,32.348C55.455,32.348 54.49,31.614 54.49,29.787C54.49,27.96 55.592,27.026 56.788,27.026C57.975,27.026 58.574,27.75 58.574,28.8C58.574,29.073 58.521,29.44 58.448,29.703L55.602,29.703Z" style="fill:rgb(35,31,32);fill-rule:nonzero;"/>
        <path d="M61.06,27.992L61.092,27.992C61.312,27.635 61.701,27.026 62.383,27.026C62.876,27.026 63.108,27.257 63.108,27.582C63.108,27.813 63.002,28.012 62.918,28.118C62.834,28.076 62.572,27.96 62.215,27.96C61.638,27.96 61.344,28.191 61.123,28.496L61.123,31.656L61.879,31.792C61.984,31.813 62.026,31.845 62.026,31.929C62.026,32.033 61.942,32.191 61.921,32.222L59.381,32.222C59.381,32.222 59.37,32.159 59.37,32.128C59.37,31.939 59.496,31.855 59.696,31.782L60.063,31.656L60.063,27.771L59.318,27.656C59.318,27.656 59.307,27.593 59.307,27.551C59.307,27.372 59.444,27.246 59.696,27.225L61.123,27.089L61.06,27.992Z" style="fill:rgb(35,31,32);fill-rule:nonzero;"/>
        <path d="M66.987,27.729L65.549,27.729L65.549,30.795C65.549,31.267 65.696,31.656 66.221,31.656C66.63,31.656 66.966,31.477 67.05,31.404C67.103,31.488 67.145,31.645 67.145,31.75C67.145,31.855 66.777,32.348 65.822,32.348C64.866,32.348 64.489,31.792 64.489,30.984L64.489,27.729L63.702,27.729C63.702,27.729 63.691,27.666 63.691,27.635C63.691,27.435 63.817,27.32 64.016,27.278L64.531,27.152L64.772,25.735L65.549,25.735L65.549,27.152L67.103,27.152L66.987,27.729Z" style="fill:rgb(35,31,32);fill-rule:nonzero;"/>
        <path d="M73.297,27.971C73.14,27.824 72.857,27.656 72.415,27.656C71.565,27.656 70.935,28.264 70.935,29.65C70.935,31.005 71.523,31.551 72.227,31.551C72.835,31.551 73.161,31.267 73.297,31.11L73.297,27.971ZM74.358,31.635L75.124,31.74C75.124,31.74 75.135,31.782 75.135,31.824C75.135,32.012 74.998,32.138 74.746,32.159L73.361,32.285L73.361,31.603L73.329,31.603C73.098,31.929 72.657,32.348 71.838,32.348C70.809,32.348 69.844,31.687 69.844,29.86C69.844,27.908 71.208,27.026 72.552,27.026C72.857,27.026 73.119,27.078 73.297,27.12L73.297,25.283L72.552,25.179C72.552,25.179 72.541,25.105 72.541,25.063C72.541,24.885 72.678,24.759 72.93,24.737L74.358,24.601L74.358,31.635Z" style="fill:rgb(35,31,32);fill-rule:nonzero;"/>
        <path d="M80.357,31.635L81.123,31.74C81.123,31.74 81.134,31.782 81.134,31.824C81.134,32.012 80.997,32.138 80.745,32.159L79.36,32.285L79.36,31.593L79.339,31.593C79.171,31.813 78.709,32.348 77.786,32.348C76.662,32.348 76.137,31.687 76.137,30.448L76.137,27.771L75.392,27.656C75.392,27.656 75.381,27.593 75.381,27.551C75.381,27.372 75.518,27.246 75.77,27.225L77.198,27.089L77.198,30.396C77.198,31.351 77.702,31.572 78.163,31.572C78.699,31.572 79.056,31.341 79.297,31.068L79.297,27.771L78.552,27.656C78.552,27.656 78.541,27.593 78.541,27.551C78.541,27.372 78.678,27.246 78.93,27.225L80.357,27.089L80.357,31.635Z" style="fill:rgb(35,31,32);fill-rule:nonzero;"/>
        <path d="M83.548,27.992L83.579,27.992C83.8,27.635 84.188,27.026 84.87,27.026C85.364,27.026 85.595,27.257 85.595,27.582C85.595,27.813 85.49,28.012 85.406,28.118C85.322,28.076 85.059,27.96 84.702,27.96C84.125,27.96 83.831,28.191 83.611,28.496L83.611,31.656L84.367,31.792C84.472,31.813 84.514,31.845 84.514,31.929C84.514,32.033 84.43,32.191 84.409,32.222L81.868,32.222C81.868,32.222 81.858,32.159 81.858,32.128C81.858,31.939 81.984,31.855 82.183,31.782L82.55,31.656L82.55,27.771L81.805,27.656C81.805,27.656 81.794,27.593 81.794,27.551C81.794,27.372 81.931,27.246 82.183,27.225L83.611,27.089L83.548,27.992Z" style="fill:rgb(35,31,32);fill-rule:nonzero;"/>
        <path d="M88.513,27.656C87.809,27.656 87.201,28.16 87.201,29.535C87.201,30.858 87.715,31.624 88.702,31.624C89.353,31.624 89.731,31.288 89.899,31.12C89.993,31.215 90.067,31.383 90.067,31.477C90.067,31.74 89.489,32.348 88.334,32.348C86.97,32.348 86.088,31.488 86.088,29.756C86.088,27.981 87.274,27.026 88.691,27.026C89.846,27.026 90.14,27.593 90.14,27.897C90.14,28.18 90.003,28.443 89.605,28.527C89.447,28.16 89.205,27.656 88.513,27.656Z" style="fill:rgb(35,31,32);fill-rule:nonzero;"/>
        <path d="M92.509,27.782L92.531,27.782C92.741,27.53 93.244,27.026 94.147,27.026C95.197,27.026 95.795,27.645 95.795,28.874L95.795,31.656L96.404,31.792C96.509,31.813 96.551,31.845 96.551,31.929C96.551,32.033 96.467,32.191 96.446,32.222L94.063,32.222C94.063,32.222 94.053,32.159 94.053,32.128C94.053,31.939 94.179,31.845 94.378,31.782L94.724,31.656L94.724,29C94.724,28.107 94.242,27.834 93.706,27.834C93.055,27.834 92.709,28.118 92.509,28.317L92.509,31.656L93.097,31.792C93.202,31.813 93.244,31.845 93.244,31.929C93.244,32.033 93.171,32.191 93.139,32.222L90.756,32.222C90.756,32.222 90.745,32.159 90.745,32.128C90.745,31.939 90.871,31.845 91.071,31.782L91.439,31.656L91.439,25.283L90.693,25.179C90.693,25.179 90.683,25.105 90.683,25.063C90.683,24.885 90.819,24.759 91.071,24.737L92.509,24.601L92.509,27.782Z" style="fill:rgb(35,31,32);fill-rule:nonzero;"/>
        <path d="M98.081,32.359C97.713,32.359 97.43,32.107 97.43,31.719C97.43,31.32 97.713,31.068 98.081,31.068C98.449,31.068 98.743,31.32 98.743,31.719C98.743,32.107 98.449,32.359 98.081,32.359ZM98.081,28.317C97.713,28.317 97.43,28.065 97.43,27.677C97.43,27.278 97.713,27.026 98.081,27.026C98.449,27.026 98.743,27.278 98.743,27.677C98.743,28.065 98.449,28.317 98.081,28.317Z" style="fill:rgb(35,31,32);fill-rule:nonzero;"/>
    </g>
</svg>
